<svg xmlns="http://www.w3.org/2000/svg" width="24" height="25" viewBox="0 0 24 25" fill="none">
<path d="M12 2.47021C6.47656 2.47021 2 6.94678 2 12.4702C2 17.9937 6.47656 22.4702 12 22.4702C17.5234 22.4702 22 17.9937 22 12.4702C22 6.94678 17.5234 2.47021 12 2.47021ZM12 20.5952C7.51953 20.5952 3.875 16.9503 3.875 12.4702C3.875 7.99014 7.51953 4.34521 12 4.34521C16.4805 4.34521 20.125 7.99014 20.125 12.4702C20.125 16.9503 16.4805 20.5952 12 20.5952ZM13.5625 15.5952H12.9375V12.1577C12.9375 11.6421 12.5195 11.2202 12 11.2202H10.75C10.2344 11.2202 9.8125 11.6421 9.8125 12.1577C9.8125 12.6733 10.2344 13.0952 10.75 13.0952H11.0625V15.5952H10.4375C9.92188 15.5952 9.5 16.0171 9.5 16.5327C9.5 17.0483 9.92188 17.4702 10.4375 17.4702H13.5625C14.0801 17.4702 14.5 17.0503 14.5 16.5327C14.5 16.0151 14.082 15.5952 13.5625 15.5952ZM12 9.97021C12.6902 9.97021 13.25 9.41045 13.25 8.72021C13.25 8.02998 12.6902 7.47021 12 7.47021C11.3098 7.47021 10.75 8.02881 10.75 8.72021C10.75 9.41162 11.3086 9.97021 12 9.97021Z" fill="#1E4EEB"/>
</svg>