<svg width="120" height="29" viewBox="0 0 120 29" fill="none" xmlns="http://www.w3.org/2000/svg">
    <path d="M110.846 29.0041C108.941 29.0041 106.735 28.6666 104.228 27.9915C104.372 25.6287 104.529 23.8808 104.698 22.7476L106.759 22.3498L109.038 24.7728C109.833 25.0139 110.725 25.1345 111.714 25.1345C112.268 25.1345 112.702 25.0983 113.016 25.026C113.088 24.8331 113.124 24.5679 113.124 24.2304C113.124 23.941 113.052 23.6999 112.907 23.5071C112.787 23.3142 112.497 23.0852 112.039 22.8199C111.581 22.5547 110.786 22.1449 109.652 21.5903C108.23 20.8429 107.145 20.1799 106.398 19.6013C105.65 18.9985 105.108 18.3838 104.77 17.7569C104.457 17.13 104.3 16.3826 104.3 15.5147C104.3 13.5859 105.011 12.0549 106.434 10.9218C107.88 9.78863 109.833 9.22205 112.292 9.22205C113.305 9.22205 114.366 9.3426 115.475 9.58369C116.608 9.80068 117.621 10.1021 118.513 10.4878C118.513 12.0549 118.404 13.8029 118.187 15.7317L116.307 16.021L113.884 13.4171C113.257 13.2243 112.341 13.1278 111.135 13.1278C110.942 13.1278 110.557 13.1519 109.978 13.2002C109.906 13.3448 109.869 13.5739 109.869 13.8873C109.869 14.2248 109.966 14.5262 110.159 14.7914C110.352 15.0325 110.689 15.3098 111.171 15.6232C111.678 15.9125 112.473 16.3344 113.558 16.8889C115.149 17.6605 116.343 18.3355 117.139 18.9142C117.958 19.4687 118.525 20.0353 118.838 20.6139C119.176 21.1925 119.345 21.8917 119.345 22.7115C119.345 24.6885 118.585 26.2315 117.066 27.3405C115.571 28.4496 113.498 29.0041 110.846 29.0041Z" fill="#008944"/>
    <path d="M93.4405 28.8232C90.6197 28.8232 88.4377 27.9673 86.8947 26.2556C85.3758 24.5438 84.6163 22.181 84.6163 19.1673C84.6163 17.0697 84.99 15.2736 85.7374 13.7788C86.4848 12.2598 87.5457 11.1026 88.9199 10.307C90.2942 9.51134 91.8975 9.11353 93.7298 9.11353C96.4542 9.11353 98.5397 9.98148 99.9863 11.7174C101.457 13.4533 102.156 15.9245 102.084 19.1311L91.0898 21.1563C91.4273 22.169 91.8975 22.9164 92.5002 23.3986C93.1271 23.8566 93.9468 24.0857 94.9594 24.0857C95.6586 24.0857 96.4904 23.9892 97.4548 23.7964C98.4192 23.5794 99.3956 23.2901 100.384 22.9284L101.216 26.5087C100.324 27.1838 99.1666 27.7383 97.7441 28.1723C96.3216 28.6063 94.8871 28.8232 93.4405 28.8232ZM96.1528 16.0933C96.1046 15.1771 95.8394 14.5141 95.3572 14.1042C94.8991 13.6703 94.2482 13.4533 93.4043 13.4533C92.7051 13.4533 92.0421 13.5497 91.4153 13.7426C90.909 14.924 90.6799 16.2018 90.7281 17.576L96.1528 16.0933Z" fill="#008944"/>
    <path d="M73.9591 1.62741L80.1071 0L81.5898 5.49702L75.478 7.16059L73.9591 1.62741ZM72.4402 25.0621L74.9717 24.3026V15.5146C74.9717 14.9842 74.9235 14.6467 74.8271 14.502C74.7547 14.3332 74.5498 14.1524 74.2123 13.9595L72.621 13.0916L72.8018 10.3792C74.8029 9.99349 76.346 9.71623 77.4309 9.54746C78.54 9.35458 79.5526 9.24609 80.4687 9.22198C80.7822 10.2587 80.975 11.0302 81.0474 11.5365V23.1092C81.0474 23.6155 81.0835 23.953 81.1559 24.1218C81.2282 24.2906 81.4331 24.4714 81.7707 24.6643L83.5427 25.6769L83.3981 28.3892H72.5487L72.4402 25.0621Z" fill="#008944"/>
    <path d="M57.1144 24.9537L59.3205 24.3027V15.5147C59.3205 14.9843 59.2843 14.6467 59.212 14.5021C59.1397 14.3333 58.9468 14.1525 58.6334 13.9596L57.0421 13.0917L57.1506 10.3793C57.5605 10.2829 57.9101 10.2226 58.1994 10.1985C61.1167 9.59575 63.2745 9.27027 64.6729 9.22205C64.8898 9.8489 65.0948 10.6325 65.2876 11.5727C66.7342 10.4396 67.9638 9.65602 68.9764 9.22205H71.0378C71.0137 10.1382 70.9534 11.1388 70.857 12.2237C70.7606 13.2845 70.64 14.1404 70.4953 14.7914C69.6274 14.7432 68.9885 14.7191 68.5786 14.7191C67.566 14.7191 66.5172 14.7793 65.4323 14.8999V23.1093C65.4323 23.6156 65.4685 23.9531 65.5408 24.1219C65.6131 24.2906 65.806 24.4715 66.1194 24.6643L68.2893 25.8216L68.1447 28.3893H57.2953L57.1144 24.9537Z" fill="#008944"/>
    <path d="M45.8045 28.8594C42.7426 28.8594 40.4522 28.0758 38.9332 26.5087C37.4384 24.9416 36.691 22.5427 36.691 19.3119C36.691 17.2385 37.0647 15.4303 37.8121 13.8873C38.5837 12.3442 39.6806 11.1629 41.1031 10.3431C42.5256 9.52339 44.2012 9.11353 46.13 9.11353C52.3744 9.11353 55.4966 12.3442 55.4966 18.8056C55.4966 21.964 54.6407 24.4353 52.929 26.2194C51.2413 27.9794 48.8665 28.8594 45.8045 28.8594ZM46.3832 24.6281C46.8654 24.6281 47.2873 24.592 47.6489 24.5197C48.0106 24.4232 48.3963 24.2786 48.8062 24.0857C48.9508 23.5312 49.0714 22.8199 49.1678 21.952C49.2643 21.084 49.3125 20.2522 49.3125 19.4566C49.3125 17.5037 48.9991 16.021 48.3722 15.0084C47.7695 13.9958 46.8654 13.4894 45.6599 13.4894C44.8642 13.4894 44.0566 13.5979 43.2368 13.8149C43.0681 14.1766 42.9355 14.7673 42.839 15.587C42.7426 16.3826 42.6944 17.2988 42.6944 18.3355C42.6944 20.3607 43.0078 21.9158 43.6346 23.0007C44.2856 24.0857 45.2018 24.6281 46.3832 24.6281Z" fill="#008944"/>
    <path d="M29.132 28.8594C27.0103 28.8594 25.4432 28.341 24.4306 27.3043C23.418 26.2435 22.9116 24.6402 22.9116 22.4944V13.7064H20.3801V11.0664L26.8898 5.13538L28.9873 5.38853V9.47513H35.063V13.7426H28.9873V21.1925C28.9873 22.3497 29.144 23.1212 29.4574 23.507C29.795 23.8928 30.4339 24.0856 31.3742 24.0856C32.1698 24.0856 33.2788 23.9771 34.7013 23.7602L35.1353 27.4489C34.2673 27.8588 33.2909 28.1964 32.206 28.4616C31.1451 28.7268 30.1205 28.8594 29.132 28.8594Z" fill="#008944"/>
    <path d="M8.60219 28.8232C5.95011 28.8232 3.26188 28.4134 0.537476 27.5936C0.658024 25.2068 0.850902 22.9887 1.11611 20.9393L3.90079 20.3969L5.70902 23.4709C7.1556 23.9772 8.43342 24.2303 9.54247 24.2303C9.92822 24.2303 10.748 24.1218 12.0017 23.9048C12.0499 23.4226 12.074 23.0972 12.074 22.9284C12.074 22.3498 11.9776 21.9158 11.7847 21.6265C11.5918 21.313 11.1699 20.9755 10.5189 20.6139C9.86795 20.2281 8.69862 19.6615 7.01094 18.9141C4.9375 17.9015 3.4427 16.8166 2.52653 15.6593C1.61036 14.4779 1.15227 13.0916 1.15227 11.5004C1.15227 9.01707 1.99612 7.07623 3.6838 5.67787C5.37148 4.2795 7.68602 3.58032 10.6274 3.58032C12.0499 3.58032 13.4603 3.72498 14.8587 4.0143C16.2811 4.27951 17.5228 4.65321 18.5836 5.1354C18.5354 6.48555 18.4269 8.16117 18.2581 10.1623L18.1496 11.7174L15.5096 12.1152L12.7611 8.6072C11.8932 8.342 10.8082 8.20939 9.5063 8.20939C8.68657 8.20939 8.07177 8.28172 7.66191 8.42638C7.54136 8.90858 7.48108 9.28228 7.48108 9.54748C7.48108 10.0779 7.61369 10.548 7.87889 10.9579C8.1441 11.3437 8.61424 11.7535 9.28931 12.1875C9.96439 12.5974 10.9649 13.1157 12.291 13.7426C14.2198 14.6587 15.6784 15.4664 16.6669 16.1656C17.6554 16.8648 18.3425 17.6001 18.7283 18.3717C19.1381 19.1191 19.3431 20.0352 19.3431 21.1202C19.3431 23.507 18.3907 25.3876 16.4861 26.7618C14.5814 28.1361 11.9534 28.8232 8.60219 28.8232Z" fill="#008944"/>
</svg>
