<svg width="132" height="40" viewBox="0 0 132 40" fill="none" xmlns="http://www.w3.org/2000/svg">
<path fill-rule="evenodd" clip-rule="evenodd" d="M65.2812 0.904562C57.6562 1.09762 51.5634 7.53674 51.6696 15.1634C51.7555 21.3479 55.7496 26.4902 61.3236 28.2702L62.694 22.1141C59.893 20.9406 57.8992 18.1608 57.8992 14.9592C57.8992 10.1222 62.367 6.22903 67.324 7.31424C70.3846 7.98415 72.7626 10.4898 73.314 13.5741C73.9861 17.3336 71.8506 20.7637 68.6416 22.1081L70.0111 28.2593C75.6389 26.4501 79.6689 21.2227 79.6689 14.9592C79.6689 7.04783 73.2404 0.703301 65.2812 0.904562Z" fill="#2D004B"/>
<path fill-rule="evenodd" clip-rule="evenodd" d="M59.9864 34.2759H0.739644C0.310819 34.2759 0 34.6265 0 35.0155V39.2608C0 39.6505 0.310819 40.0002 0.739644 40.0002H58.712L59.9864 34.2759Z" fill="#2D004B"/>
<path fill-rule="evenodd" clip-rule="evenodd" d="M130.675 34.2759H71.3507L72.6254 40.0002H130.675C131.104 40.0002 131.415 39.6505 131.415 39.2608V35.0155C131.415 34.6265 131.104 34.2759 130.675 34.2759Z" fill="#2D004B"/>
<path fill-rule="evenodd" clip-rule="evenodd" d="M6.60056 7.01413H1.03188C0.603297 7.01413 0.292236 6.66421 0.292236 6.27448V2.02919C0.292236 1.63946 0.603297 1.28955 1.03188 1.28955H18.3234C18.7522 1.28955 19.063 1.63946 19.063 2.02919V6.27448C19.063 6.66421 18.7522 7.01413 18.3234 7.01413H12.7547V27.8115C12.7547 28.1993 12.4041 28.5509 12.0143 28.5509H7.34117C6.9512 28.5509 6.60056 28.1993 6.60056 27.8115V7.01413Z" fill="#008944"/>
<path fill-rule="evenodd" clip-rule="evenodd" d="M24.9587 2.02895C24.9587 1.63922 25.2705 1.28955 25.6993 1.28955H37.3432C42.0173 1.28955 45.834 5.06716 45.834 9.70049C45.834 13.2841 43.4575 16.1664 40.0696 17.5296L45.4052 27.4215C45.6781 27.9273 45.4052 28.5509 44.7428 28.5509H39.5638C39.2521 28.5509 39.0182 28.355 38.9403 28.1991L33.7604 17.8793H31.073V27.8113C31.073 28.1991 30.7231 28.5509 30.3334 28.5509H25.6993C25.2705 28.5509 24.9587 28.1991 24.9587 27.8113V2.02895ZM36.8374 12.9344C38.4345 12.9344 39.7967 11.4534 39.7967 9.81826C39.7967 8.18139 38.4345 6.85799 36.8374 6.85799H31.073V12.9344H36.8374Z" fill="#008944"/>
<path fill-rule="evenodd" clip-rule="evenodd" d="M81.7396 2.30092C81.5058 1.79511 81.8176 1.28955 82.4023 1.28955H87.581C87.8928 1.28955 88.1657 1.52339 88.2437 1.71717L94.6697 15.9326H94.9036L101.329 1.71717C101.407 1.52339 101.68 1.28955 101.991 1.28955H107.171C107.755 1.28955 108.067 1.79511 107.833 2.30092L95.6041 28.5111C95.4873 28.7449 95.2535 28.9406 94.9427 28.9406H94.5527C94.2409 28.9406 94.0071 28.7449 93.8903 28.5111L81.7396 2.30092Z" fill="#008944"/>
<path fill-rule="evenodd" clip-rule="evenodd" d="M113.441 2.02895C113.441 1.63922 113.753 1.28955 114.182 1.28955H130.305C130.733 1.28955 131.044 1.63922 131.044 2.02895V6.27448C131.044 6.66421 130.733 7.01389 130.305 7.01389H119.517V11.8432H128.396C128.786 11.8432 129.137 12.1928 129.137 12.5826V16.8281C129.137 17.256 128.786 17.5675 128.396 17.5675H119.517V22.8263H130.305C130.733 22.8263 131.044 23.1762 131.044 23.566V27.8113C131.044 28.1991 130.733 28.5509 130.305 28.5509H114.182C113.753 28.5509 113.441 28.1991 113.441 27.8113V2.02895Z" fill="#008944"/>
</svg>
